<svg height="512pt" viewBox="0 -11 512 511" width="512pt" xmlns="http://www.w3.org/2000/svg"><path d="m32.058594 166.574219h447.882812v285.871093h-447.882812zm0 0" fill="#dadee4"/><path d="m439.941406 166.574219v170.398437c0 52.726563-42.746094 95.472656-95.472656 95.472656h-312.410156v20h447.882812v-285.871093zm0 0" fill="#b4bcc9"/><path d="m243.539062 333.777344-26.597656 74.480468c-1.230468 3.457032 1.328125 7.089844 5 7.089844h16.953125c1.8125 0 3.5-.925781 4.476563-2.457031l72.015625-113.117187c3.285156-5.160157-.421875-11.910157-6.539063-11.910157h-27.210937c-5.359375 0-9.097657-5.308593-7.296875-10.355469l22.671875-63.480468c1.800781-5.046875-1.941407-10.355469-7.300781-10.355469h-46.570313c-3.277344 0-6.199219 2.058594-7.296875 5.140625l-39.996094 111.988281c-1.800781 5.046875 1.9375 10.355469 7.296875 10.355469h38.550781c1.355469 0 2.300782 1.34375 1.84375 2.621094zm0 0" fill="#f7b735"/><path d="m308.847656 287.863281h-22.578125c-.203125.648438-.488281 1.292969-.882812 1.910157l-59.515625 93.484374-8.929688 25c-1.230468 3.453126 1.328125 7.089844 5 7.089844h16.953125c1.8125 0 3.5-.925781 4.476563-2.457031l72.015625-113.117187c3.285156-5.160157-.421875-11.910157-6.539063-11.910157zm0 0" fill="#f5a503"/><path d="m495.945312 108.695312h-479.890624c-4.726563 0-8.554688 3.832032-8.554688 8.554688v40.769531c0 4.726563 3.828125 8.554688 8.554688 8.554688h479.890624c4.726563 0 8.554688-3.828125 8.554688-8.554688v-40.769531c0-4.722656-3.828125-8.554688-8.554688-8.554688zm0 0" fill="#5f6c75"/><path d="m498.449219 452.445312h-484.898438c-3.34375 0-6.050781 2.707032-6.050781 6.046876v16.84375c0 3.339843 2.707031 6.046874 6.050781 6.046874h484.898438c3.34375 0 6.050781-2.707031 6.050781-6.046874v-16.84375c0-3.339844-2.707031-6.046876-6.050781-6.046876zm0 0" fill="#5f6c75"/><path d="m498.449219 452.445312h-33.949219v7.890626c0 3.339843-2.707031 6.046874-6.050781 6.046874h-450.949219v8.953126c0 3.339843 2.707031 6.046874 6.050781 6.046874h484.898438c3.34375 0 6.050781-2.707031 6.050781-6.046874v-16.84375c0-3.339844-2.707031-6.046876-6.050781-6.046876zm0 0" fill="#4e5a61"/><path d="m413.792969 108.695312h-315.585938v-69.753906c0-3.878906 3.144531-7.027344 7.027344-7.027344h301.53125c3.882813 0 7.03125 3.148438 7.03125 7.027344v69.753906zm0 0" fill="#5f6c75"/><path d="m495.945312 108.695312h-31.445312v6.996094c0 17.054688-13.828125 30.882813-30.882812 30.882813h-426.117188v11.445312c0 4.722657 3.828125 8.554688 8.554688 8.554688h479.890624c4.726563 0 8.554688-3.832031 8.554688-8.554688v-40.769531c0-4.722656-3.828125-8.554688-8.554688-8.554688zm0 0" fill="#4e5a61"/><path d="m406.765625 31.914062h-32.972656v24.628907c0 17.757812-14.394531 32.152343-32.152344 32.152343h-243.433594v20h315.585938v-69.753906c0-3.878906-3.144531-7.027344-7.027344-7.027344zm0 0" fill="#4e5a61"/><path d="m73.320312 108.695312h-41.261718v-39.269531c0-2.996093 2.425781-5.421875 5.421875-5.421875h30.417969c2.992187 0 5.417968 2.425782 5.417968 5.421875v39.269531zm0 0" fill="#81b8fd"/><path d="m438.679688 108.695312h41.261718v-39.269531c0-2.996093-2.425781-5.421875-5.421875-5.421875h-30.417969c-2.992187 0-5.417968 2.425782-5.417968 5.421875v39.269531zm0 0" fill="#f2385a"/><g fill="#dadee4"><path d="m146.09375 8h-25.835938c-1.578124 0-2.855468 1.277344-2.855468 2.855469v21.058593h31.550781v-21.058593c-.003906-1.578125-1.28125-2.855469-2.859375-2.855469zm0 0"/><path d="m195.222656 8h-25.832031c-1.578125 0-2.859375 1.277344-2.859375 2.855469v21.058593h31.550781v-21.058593c0-1.578125-1.28125-2.855469-2.859375-2.855469zm0 0"/><path d="m244.351562 8h-25.832031c-1.578125 0-2.859375 1.277344-2.859375 2.855469v21.058593h31.550782v-21.058593c0-1.578125-1.28125-2.855469-2.859376-2.855469zm0 0"/><path d="m293.480469 8h-25.832031c-1.578126 0-2.859376 1.277344-2.859376 2.855469v21.058593h31.550782v-21.058593c0-1.578125-1.28125-2.855469-2.859375-2.855469zm0 0"/><path d="m342.613281 8h-25.835937c-1.578125 0-2.855469 1.277344-2.855469 2.855469v21.058593h31.546875v-21.058593c0-1.578125-1.277344-2.855469-2.855469-2.855469zm0 0"/><path d="m391.742188 8h-25.835938c-1.578125 0-2.855469 1.277344-2.855469 2.855469v21.058593h31.546875v-21.058593c0-1.578125-1.277344-2.855469-2.855468-2.855469zm0 0"/></g><path d="m203.144531 338.65625h30.691407l-23.957032 67.078125c-2.976562 8.332031 3.214844 17.113281 12.0625 17.113281h16.953125c4.402344 0 8.441407-2.214844 10.804688-5.929687l72.015625-113.117188c2.988281-4.695312 3.183594-10.648437.503906-15.527343-2.679688-4.878907-7.800781-7.910157-13.367188-7.910157h-27.210937c-.066406 0-.132813 0-.207031-.105469-.074219-.105468-.050782-.164062-.03125-.230468l22.671875-63.476563c3.542969-9.921875-3.828125-20.378906-14.359375-20.378906h-46.574219c-6.425781 0-12.199219 4.066406-14.359375 10.121094l-5.183594 14.511719c-1.394531 3.898437.640625 8.191406 4.539063 9.585937 3.902343 1.394531 8.191406-.640625 9.585937-4.542969l5.183594-14.511718c.035156-.097657.128906-.164063.234375-.164063h46.574219c.066406 0 .128906 0 .203125.105469.074219.105468.054687.164062.03125.226562l-22.671875 63.480469c-3.542969 9.917969 3.828125 20.378906 14.363281 20.378906h27.210937c.101563 0 .144532 0 .21875.128907.070313.128906.042969.167968-.011718.253906l-71.367188 112.101562h-12.636718l25.550781-71.546875c2.199219-6.15625-2.375-12.644531-8.910157-12.644531h-38.546874c-.066407 0-.132813 0-.207032-.105469-.074218-.105469-.050781-.164062-.027344-.226562l23.039063-64.515625c1.390625-3.902344-.640625-8.191406-4.542969-9.585938-3.898437-1.394531-8.191406.640625-9.585937 4.542969l-23.039063 64.511719c-3.542968 9.921875 3.824219 20.378906 14.359375 20.378906zm0 0"/><path d="m495.945312 174.074219c8.851563 0 16.054688-7.203125 16.054688-16.054688v-40.769531c0-8.851562-7.203125-16.054688-16.054688-16.054688h-8.503906v-31.769531c0-7.125-5.796875-12.921875-12.921875-12.921875h-30.417969c-7.125 0-12.921874 5.796875-12.921874 12.921875v31.769531h-9.886719v-62.253906c0-8.007812-6.515625-14.527344-14.527344-14.527344h-4.667969v-13.558593c0-5.710938-4.644531-10.355469-10.355468-10.355469h-25.835938c-5.710938 0-10.355469 4.644531-10.355469 10.355469v13.558593h-2.582031v-13.558593c0-5.710938-4.644531-10.355469-10.355469-10.355469h-25.835937c-5.710938 0-10.355469 4.644531-10.355469 10.355469v13.558593h-2.582031v-13.558593c0-5.710938-4.644532-10.355469-10.355469-10.355469h-25.835937c-5.710938 0-10.355469 4.644531-10.355469 10.355469v13.558593h-2.582031v-13.558593c0-5.710938-4.644532-10.355469-10.355469-10.355469h-25.835938c-5.710937 0-10.355469 4.644531-10.355469 10.355469v13.558593h-2.578124v-13.558593c0-5.710938-4.648438-10.355469-10.359376-10.355469h-25.835937c-5.710937 0-10.355469 4.644531-10.355469 10.355469v13.558593h-2.582031v-13.558593c0-5.710938-4.644531-10.355469-10.355469-10.355469h-25.835937c-5.710938 0-10.355469 4.644531-10.355469 10.355469v13.558593h-4.667969c-8.011719 0-14.527343 6.519532-14.527343 14.527344v62.253906h-9.886719v-31.769531c0-7.125-5.796875-12.921875-12.921875-12.921875h-30.421875c-7.125 0-12.921875 5.796875-12.921875 12.921875v31.769531h-8.503906c-8.851563 0-16.054688 7.203126-16.054688 16.054688v40.769531c0 8.851563 7.203125 16.054688 16.054688 16.054688h8.503906v270.871093h-11.007813c-7.472656 0-13.550781 6.078126-13.550781 13.546876v16.84375c0 7.472656 6.078125 13.550781 13.550781 13.550781h484.898438c7.472656 0 13.550781-6.078125 13.550781-13.550781v-16.84375c0-7.46875-6.078125-13.546876-13.550781-13.546876h-11.007813v-270.871093zm-49.765624-102.570313h5.632812v12.347656c0 4.140626 3.355469 7.5 7.5 7.5 4.140625 0 7.5-3.359374 7.5-7.5v-12.347656h5.628906v29.691406h-26.261718zm-75.628907-56.003906h16.546875v8.914062h-16.546875zm-49.132812 0h16.550781v8.914062h-16.550781zm-49.128907 0h16.550782v8.914062h-16.550782zm-49.128906 0h16.550782v8.914062h-16.550782zm-49.128906 0h16.550781v8.914062h-16.550781zm-49.128906 0h16.546875v8.914062h-16.546875zm-85.34375 56.003906h5.632812v12.347656c0 4.140626 3.355469 7.5 7.5 7.5 4.140625 0 7.5-3.359374 7.5-7.5v-12.347656h5.628906v29.691406h-26.261718zm-24.558594 86.515625v-40.769531c0-.582031.472656-1.054688 1.054688-1.054688h327.769531c4.144531 0 7.5-3.355468 7.5-7.5 0-4.144531-3.355469-7.5-7.5-7.5h-238.117188v-61.78125h300.585938v61.78125h-27.46875c-4.144531 0-7.5 3.359376-7.5 7.5 0 4.144532 3.355469 7.5 7.5 7.5h117.121093c.582032 0 1.054688.472657 1.054688 1.054688v40.769531c0 .582031-.472656 1.054688-1.054688 1.054688h-479.890624c-.582032 0-1.054688-.472657-1.054688-1.054688zm457.441406 286.925781h-22.5c-4.144531 0-7.5 3.355469-7.5 7.5 0 4.144532 3.355469 7.5 7.5 7.5h47.058594v13.9375h-482v-13.9375h399.941406c4.140625 0 7.5-3.355468 7.5-7.5 0-4.144531-3.359375-7.5-7.5-7.5h-375.382812v-270.871093h432.882812zm0 0"/><path d="m62.058594 221.015625h9.441406v9.441406c0 4.140625 3.359375 7.5 7.5 7.5 4.144531 0 7.5-3.359375 7.5-7.5v-9.441406h9.441406c4.144532 0 7.5-3.359375 7.5-7.5 0-4.144531-3.355468-7.5-7.5-7.5h-9.441406v-9.441406c0-4.144531-3.355469-7.5-7.5-7.5-4.140625 0-7.5 3.355469-7.5 7.5v9.441406h-9.441406c-4.140625 0-7.5 3.355469-7.5 7.5 0 4.140625 3.359375 7.5 7.5 7.5zm0 0"/><path d="m416.058594 221.015625h33.882812c4.144532 0 7.5-3.359375 7.5-7.5 0-4.144531-3.355468-7.5-7.5-7.5h-33.882812c-4.144532 0-7.5 3.355469-7.5 7.5 0 4.140625 3.355468 7.5 7.5 7.5zm0 0"/><path d="m218.191406 137.636719c0 4.140625-3.355468 7.5-7.5 7.5-4.140625 0-7.5-3.359375-7.5-7.5 0-4.144531 3.359375-7.5 7.5-7.5 4.144532 0 7.5 3.355469 7.5 7.5zm0 0"/><path d="m248.398438 137.636719c0 4.140625-3.359376 7.5-7.5 7.5-4.140626 0-7.5-3.359375-7.5-7.5 0-4.144531 3.359374-7.5 7.5-7.5 4.140624 0 7.5 3.355469 7.5 7.5zm0 0"/><path d="m278.601562 137.636719c0 4.140625-3.359374 7.5-7.5 7.5-4.140624 0-7.5-3.359375-7.5-7.5 0-4.144531 3.359376-7.5 7.5-7.5 4.140626 0 7.5 3.355469 7.5 7.5zm0 0"/><path d="m308.808594 137.636719c0 4.140625-3.359375 7.5-7.5 7.5-4.144532 0-7.5-3.359375-7.5-7.5 0-4.144531 3.355468-7.5 7.5-7.5 4.140625 0 7.5 3.355469 7.5 7.5zm0 0"/></svg>