<?xml version="1.0" encoding="iso-8859-1"?>
<!-- Generator: Adobe Illustrator 19.0.0, SVG Export Plug-In . SVG Version: 6.00 Build 0)  -->
<svg version="1.1" id="Capa_1" xmlns="http://www.w3.org/2000/svg" xmlns:xlink="http://www.w3.org/1999/xlink" x="0px" y="0px"
	 viewBox="0 0 512 512" style="enable-background:new 0 0 512 512;" xml:space="preserve">
<g>
	<g>
		<path d="M331,0H151C68.295,0,0,68.295,0,151c0,75.63,57.25,138.355,130.097,148.55c4.581,2.153,15.361,1.45,20.903,1.45v45
			c0,5.537,3.047,10.62,7.925,13.228c4.816,2.584,10.75,2.349,15.396-0.747L260.541,301H331c82.705,0,151-67.295,151-150
			S413.705,0,331,0z M151,181c-16.538,0-30-13.462-30-30c0-16.538,13.462-30,30-30c16.538,0,30,13.462,30,30
			C181,167.538,167.538,181,151,181z M241,181c-16.538,0-30-13.462-30-30c0-16.538,13.462-30,30-30c16.538,0,30,13.462,30,30
			C271,167.538,257.538,181,241,181z M331,181c-16.538,0-30-13.462-30-30c0-16.538,13.462-30,30-30c16.538,0,30,13.462,30,30
			C361,167.538,347.538,181,331,181z"/>
	</g>
</g>
<g>
	<g>
		<path d="M493.442,230.1C464.094,289.752,401.854,331,331,331h-61.377l-78.662,52.441c-14.086,9.41-31.91,9.895-46.216,2.227
			C130.111,377.846,121,362.641,121,346v-17.505c-33.796-5.696-64.994-21.081-89.473-42.695C31.014,290.869,30,295.842,30,301
			c0,82.705,68.295,150,151,150h70.459l86.221,58.48c4.645,3.096,10.58,3.331,15.396,0.747C357.953,507.62,361,502.537,361,497v-46
			c5.543,0,16.322,0.703,20.903-1.45C454.75,439.355,512,376.615,512,301C512,275.682,505.134,251.708,493.442,230.1z"/>
	</g>
</g>
<g>
</g>
<g>
</g>
<g>
</g>
<g>
</g>
<g>
</g>
<g>
</g>
<g>
</g>
<g>
</g>
<g>
</g>
<g>
</g>
<g>
</g>
<g>
</g>
<g>
</g>
<g>
</g>
<g>
</g>
</svg>
