<svg enable-background="new 0 0 24 24" height="512" viewBox="0 0 24 24" width="512" xmlns="http://www.w3.org/2000/svg"><path d="m18.25 9.5h-.75v5h.75c.689 0 1.25-.561 1.25-1.25v-2.5c0-.689-.561-1.25-1.25-1.25z"/><path d="m21.25 0h-18.5c-1.517 0-2.75 1.233-2.75 2.75v18.5c0 1.517 1.233 2.75 2.75 2.75h18.5c1.517 0 2.75-1.233 2.75-2.75v-18.5c0-1.517-1.233-2.75-2.75-2.75zm-15.5 14.5h1.5c.414 0 .75.336.75.75s-.336.75-.75.75h-1.5c-1.517 0-2.75-1.233-2.75-2.75v-2.5c0-1.517 1.233-2.75 2.75-2.75h1.5c.414 0 .75.336.75.75s-.336.75-.75.75h-1.5c-.689 0-1.25.561-1.25 1.25v2.5c0 .689.561 1.25 1.25 1.25zm9.25.75c0 .414-.336.75-.75.75s-.75-.336-.75-.75v-3.946l-.869 1.352c-.276.43-.985.43-1.262 0l-.869-1.352v3.946c0 .414-.336.75-.75.75s-.75-.336-.75-.75v-6.5c0-.333.219-.626.539-.72.318-.094.663.034.842.314l1.619 2.519 1.619-2.519c.18-.28.523-.408.842-.314s.539.387.539.72zm6-2c0 1.517-1.233 2.75-2.75 2.75h-1.5c-.414 0-.75-.336-.75-.75v-6.5c0-.414.336-.75.75-.75h1.5c1.517 0 2.75 1.233 2.75 2.75z"/></svg>