<?xml version="1.0" encoding="iso-8859-1"?>
<!-- Generator: Adobe Illustrator 19.0.0, SVG Export Plug-In . SVG Version: 6.00 Build 0)  -->
<svg version="1.1" id="Capa_1" xmlns="http://www.w3.org/2000/svg" xmlns:xlink="http://www.w3.org/1999/xlink" x="0px" y="0px"
	 viewBox="0 0 480 480" style="enable-background:new 0 0 480 480;" xml:space="preserve">
<path style="fill:#E6EAEE;" d="M290.232,472H189.76c-29.691,0-53.76-24.069-53.76-53.76l0,0V89.944
	c-0.001-21.733,8.632-42.577,24-57.944c15.365-15.366,36.206-23.999,57.936-24h44.12c21.733-0.001,42.577,8.632,57.944,24
	c15.368,15.367,24.001,36.211,24,57.944V418.24C343.996,447.932,319.924,472,290.232,472z"/>
<path style="fill:#DADEE2;" d="M313.464,448H212.992c-29.691,0-53.76-24.069-53.76-53.76l0,0V65.944
	c0.02-15.532,4.46-30.737,12.8-43.84C167.713,25.008,163.683,28.322,160,32c-15.368,15.367-24.001,36.211-24,57.944V418.24
	c0,29.691,24.069,53.76,53.76,53.76l0,0h100.472c20.544-0.007,39.284-11.734,48.272-30.208
	C330.79,445.875,322.192,448.007,313.464,448z"/>
<g>
	<path style="fill:#AAB5BD;" d="M280,256h-80l-32-80c47.422-10.535,96.578-10.535,144,0L280,256z"/>
	<path style="fill:#AAB5BD;" d="M312,392.096c-47.422,10.535-96.578,10.535-144,0L200,344h80L312,392.096z"/>
</g>
<path style="fill:#DADEE2;" d="M136,160v48l-88,88l-24-24L136,160z"/>
<path style="fill:#E6EAEE;" d="M136,160L24,272l12,12l100-100V160z"/>
<path style="fill:#DADEE2;" d="M136,296v48l-64,64l-24-24L136,296z"/>
<path style="fill:#E6EAEE;" d="M48,384l12,12l76-76v-24L48,384z"/>
<g>
	<path style="fill:#74818C;" d="M312,176v216.096l-32-48V256L312,176z"/>
	<path style="fill:#74818C;" d="M168,176v216.096L200,344v-88.096L168,176z"/>
</g>
<path style="fill:#DADEE2;" d="M344,160v48l88,88l24-24L344,160z"/>
<path style="fill:#E6EAEE;" d="M456,272L344,160v24l100,100L456,272z"/>
<path style="fill:#DADEE2;" d="M344,296v48l56,56l24-24L344,296z"/>
<path style="fill:#E6EAEE;" d="M424,376l-80-80v24l68,68L424,376z"/>
<g>
	<path style="fill:#DADEE2;" d="M196.8,10.872c-35.872,9.491-60.842,41.966-60.8,79.072v51.144l-2.4,5.176l-23.928-23.92
		L98.36,133.656l32,32c1.496,1.496,3.524,2.339,5.64,2.344c3.107,0,5.934-1.8,7.248-4.616L215.712,8.112
		C209.322,8.29,202.974,9.216,196.8,10.872L196.8,10.872z"/>
	<path style="fill:#DADEE2;" d="M370.344,122.344l-23.896,23.888L344,140.92V89.944c0.01-44.077-34.895-80.241-78.944-81.792
		l71.68,155.2c1.096,2.373,3.283,4.061,5.856,4.52c0.464,0.086,0.936,0.129,1.408,0.128c2.122,0,4.156-0.844,5.656-2.344l32-32
		L370.344,122.344z"/>
</g>
<g>
	<path style="fill:#5D6D7E;" d="M168,288h32v16h-32V288z"/>
	<path style="fill:#5D6D7E;" d="M280,288h32v16h-32V288z"/>
</g>
<g>
	<path style="fill:#C0FAFF;" d="M199.936,10.08c-30.872,6.859-54.985,30.963-61.856,61.832
		C172.026,71.418,199.429,44.026,199.936,10.08z"/>
	<path style="fill:#C0FAFF;" d="M341.912,71.896c-6.87-30.847-30.961-54.938-61.808-61.808
		C281.195,43.761,308.239,70.805,341.912,71.896z"/>
</g>
<g>
	<path style="fill:#74818C;" d="M294.072,365.152c-16.058,21.037-46.129,25.074-67.167,9.016
		C217.233,366.786,210.732,356,208.72,344H200l-32,48.096c47.422,10.535,96.578,10.535,144,0L294.072,365.152z"/>
	<path style="fill:#74818C;" d="M272,240c-35.346,0-64-28.654-64-64c0.001-2.103,0.108-4.204,0.32-6.296
		c-13.557,1.269-27.022,3.371-40.32,6.296l32,80h80l7.152-17.88C282.195,239.35,277.108,239.981,272,240z"/>
</g>
<g>
	<path style="fill:#E6EAEE;" d="M160.571,178.978l14.863-5.945l43.217,108.045l-14.863,5.945L160.571,178.978z"/>
	<path style="fill:#E6EAEE;" d="M261.348,281.052l50.798-126.959l14.862,5.947L276.21,286.998L261.348,281.052z"/>
	<path style="fill:#E6EAEE;" d="M262.127,331.558l13.321-8.863l56.098,84.315l-13.321,8.863L262.127,331.558z"/>
	<path style="fill:#E6EAEE;" d="M161.343,387.666l43.21-64.967l13.322,8.861l-43.21,64.967L161.343,387.666z"/>
</g>
<path d="M160.928,172.264c-0.588,1.156-0.879,2.44-0.848,3.736H160v216.096h0.056c-0.093,3.762,2.522,7.05,6.208,7.808
	c48.573,10.72,98.899,10.72,147.472,0c3.686-0.758,6.301-4.046,6.208-7.808H320V176h-0.08c0.098-3.756-2.506-7.043-6.184-7.808
	c-48.573-10.72-98.899-10.72-147.472,0C163.971,168.693,162.017,170.184,160.928,172.264L160.928,172.264z M288,304h16v61.6l-16-24
	V304z M304,288h-16v-30.456l16-40V288z M272,336h-64v-72h64V336z M176,304h16v37.6l-16,24V304z M192,288h-16v-70.456l16,40V288z
	 M181.248,386.624L204.28,352h71.432l23.04,34.624C259.905,393.72,220.095,393.72,181.248,386.624L181.248,386.624z
	 M301.024,181.896L274.584,248h-69.168l-26.4-66.104C219.325,174.237,260.715,174.237,301.024,181.896z"/>
<path d="M18.344,277.656l24,24c3.124,3.123,8.188,3.123,11.312,0L128,227.312v65.376l-85.656,85.656
	c-3.123,3.124-3.123,8.188,0,11.312l24,24c3.124,3.123,8.188,3.123,11.312,0L128,363.312v54.928
	c0.04,34.093,27.667,61.72,61.76,61.76h100.48c34.093-0.04,61.72-27.667,61.76-61.76v-54.928l42.344,42.344
	c3.124,3.123,8.188,3.123,11.312,0l24-24c3.123-3.124,3.123-8.188,0-11.312L352,292.688v-65.376l74.344,74.344
	c3.124,3.123,8.188,3.123,11.312,0l24-24c3.123-3.124,3.123-8.188,0-11.312L355.312,160l26.344-26.344l-11.312-11.312L352,140.688
	V89.944C352,40.269,311.731,0,262.056,0h-44.12C168.264,0.004,128,40.272,128,89.944v50.744l-18.344-18.344l-11.312,11.312
	L124.688,160L18.344,266.344C15.221,269.468,15.221,274.532,18.344,277.656L18.344,277.656z M144,89.944
	c0.02-3.502,0.287-6.999,0.8-10.464c7.992-0.907,15.775-3.148,23.024-6.632L144,123.944V89.944z M72,396.688L59.312,384L128,315.312
	v25.376L72,396.688z M412.688,376L400,388.688l-48-48v-25.376L412.688,376z M336,89.944V123.6l-23.544-50.976
	c7.139,3.51,14.816,5.801,22.712,6.776C335.695,82.89,335.973,86.414,336,89.944z M432,284.688l-80-80v-25.376L444.688,272
	L432,284.688z M330.656,62.328c-20.206-5.002-35.982-20.778-40.984-40.984C308.338,28.864,323.136,43.662,330.656,62.328z
	 M262.056,16c3.529,0.016,7.053,0.284,10.544,0.8c1.137,9.328,4.108,18.338,8.744,26.512L336,161.76v256.48
	c-0.031,25.26-20.5,45.729-45.76,45.76H189.76c-25.26-0.031-45.729-20.5-45.76-45.76V161.776l55.248-118.4
	c4.542-8.205,7.372-17.246,8.32-26.576c3.444-0.51,6.919-0.777,10.4-0.8L262.056,16z M165.656,37.656
	c7.126-7.13,15.637-12.725,25.008-16.44c-2.162,9.883-7.077,18.953-14.176,26.16c-7.409,7.577-16.858,12.84-27.2,15.152
	C152.993,53.209,158.563,44.745,165.656,37.656z M128,179.312v25.376l-80,80L35.312,272L128,179.312z"/>
<g>
</g>
<g>
</g>
<g>
</g>
<g>
</g>
<g>
</g>
<g>
</g>
<g>
</g>
<g>
</g>
<g>
</g>
<g>
</g>
<g>
</g>
<g>
</g>
<g>
</g>
<g>
</g>
<g>
</g>
</svg>
