<svg enable-background="new 0 0 512 512" height="512" viewBox="0 0 512 512" width="512" xmlns="http://www.w3.org/2000/svg"><g id="_x31_8_Electric_meter"><g><path d="m454.202 438.102c-10.75 11.74-22.692 22.621-35.493 32.338-1.427 1.084-1.706 3.119-.624 4.546 1.09 1.433 3.128 1.701 4.548.622 13.113-9.953 25.343-21.097 36.355-33.124 1.209-1.322 1.12-3.374-.203-4.584-1.316-1.209-3.374-1.12-4.583.202z"/><path d="m471.025 417.918c-1.957 2.612-3.807 4.98-5.653 7.241-1.136 1.388-.928 3.431.459 4.565 1.39 1.133 3.432.927 4.565-.461 1.904-2.329 3.807-4.768 5.82-7.451 1.075-1.435.783-3.468-.649-4.542-1.432-1.075-3.467-.783-4.542.648z"/><path d="m396.625 271.361h-281.25c-9.278 0-16.826 7.549-16.826 16.828v59.868c0 9.277 7.549 16.826 16.826 16.826h281.25c9.277 0 16.826-7.549 16.826-16.826v-59.868c0-9.279-7.548-16.828-16.826-16.828zm10.337 76.695c0 5.7-4.636 10.337-10.337 10.337h-281.25c-5.7 0-10.337-4.637-10.337-10.337v-59.868c0-5.701 4.637-10.338 10.337-10.338h281.25c5.701 0 10.337 4.637 10.337 10.338z"/><g><path d="m256 .975c-140.621 0-255.025 114.404-255.025 255.025s114.404 255.025 255.025 255.025c140.62 0 255.025-114.404 255.025-255.025s-114.405-255.025-255.025-255.025zm0 503.561c-137.043 0-248.536-111.493-248.536-248.536s111.493-248.536 248.536-248.536 248.536 111.493 248.536 248.536-111.493 248.536-248.536 248.536z"/><path d="m256 35.186c-118.363 0-215.83 93.73-220.632 211.755-.26 6.723 5.088 12.303 11.81 12.303h417.644c6.723 0 12.07-5.581 11.81-12.303-4.776-117.818-102.036-211.755-220.632-211.755zm-154.91 156.649c-.675 1.661-2.57 2.44-4.231 1.765l-24.114-9.993c-1.661-.675-2.44-2.596-1.765-4.231.701-1.661 2.596-2.44 4.257-1.765l24.088 9.993c1.661.675 2.44 2.57 1.765 4.231zm151.665-132.847c0-1.791 1.454-3.245 3.245-3.245s3.245 1.453 3.245 3.245v26.086c0 1.791-1.454 3.245-3.245 3.245s-3.245-1.453-3.245-3.245zm-138.349 55.418c1.272-1.272 3.322-1.272 4.594 0l18.429 18.456c1.272 1.246 1.272 3.296 0 4.568s-3.323 1.272-4.568 0l-18.455-18.43c-1.272-1.272-1.272-3.322 0-4.594zm34.86 124.073h-30.369c-1.792 0-3.245-1.452-3.245-3.245s1.452-3.245 3.245-3.245h30.369c1.792 0 3.245 1.452 3.245 3.245s-1.453 3.245-3.245 3.245zm25.515 0h-8.8c-1.792 0-3.245-1.452-3.245-3.245s1.452-3.245 3.245-3.245h8.8c1.792 0 3.245 1.452 3.245 3.245s-1.453 3.245-3.245 3.245zm17.054-137.389c-1.661.701-3.556-.104-4.231-1.765l-9.993-24.088c-.675-1.661.104-3.556 1.765-4.257 1.661-.675 3.556.104 4.231 1.765l9.993 24.114c.675 1.636-.104 3.556-1.765 4.231zm60.92 133.833c-11.499-1.376-20.947-10.668-22.453-22.141-1.09-8.228 1.635-16.249 7.528-22.011 3.997-3.894 6.385-8.488 6.956-13.29l7.917-67.877c.182-1.635 1.583-2.881 3.219-2.881 1.661 0 3.037 1.246 3.219 2.881l7.865 67.202c.623 5.399 2.933 10.175 6.489 13.445 5.269 4.88 8.306 11.81 8.306 19.001 0 15.314-13.342 27.566-29.046 25.671zm81.634-159.686-9.993 24.088c-.675 1.661-2.596 2.44-4.231 1.765-1.661-.675-2.44-2.596-1.765-4.231l9.993-24.114c.675-1.661 2.596-2.44 4.231-1.765 1.661.701 2.44 2.596 1.765 4.257zm63.205 43.763-18.455 18.43c-1.246 1.272-3.297 1.272-4.568 0-1.272-1.272-1.272-3.323 0-4.568l18.429-18.456c1.272-1.272 3.322-1.272 4.594 0s1.272 3.322 0 4.594zm41.661 64.607-24.114 9.993c-1.635.675-3.53-.104-4.231-1.765-.675-1.661.104-3.556 1.765-4.231l24.088-9.993c1.661-.701 3.556.104 4.257 1.765.674 1.635-.104 3.556-1.765 4.231z"/><path d="m60.234 71.292c10.98-11.681 23.024-22.375 35.846-31.823 1.454-1.064 1.765-3.115.701-4.542-1.064-1.453-3.115-1.765-4.542-.701-13.134 9.708-25.49 20.661-36.729 32.601-1.22 1.324-1.168 3.374.13 4.594 1.324 1.221 3.374 1.169 4.594-.129z"/><path d="m43.207 91.175c1.999-2.596 3.868-4.932 5.685-7.086 1.168-1.376.986-3.426-.363-4.568-1.376-1.168-3.426-1.012-4.568.363-1.921 2.259-3.842 4.646-5.892 7.346-1.09 1.428-.831 3.452.597 4.542 1.426 1.09 3.45.83 4.541-.597z"/></g><path d="m142.239 289.697c-9.433 0-17.108 7.674-17.108 17.108v22.635c0 9.433 7.674 17.108 17.108 17.108s17.109-7.674 17.109-17.108v-22.635c0-9.434-7.676-17.108-17.109-17.108zm10.62 39.742c0 5.855-4.764 10.618-10.62 10.618-5.855 0-10.618-4.763-10.618-10.618v-22.635c0-5.855 4.763-10.618 10.618-10.618s10.62 4.763 10.62 10.618z"/><path d="m180.205 289.697c-9.433 0-17.109 7.674-17.109 17.108v22.635c0 9.433 7.675 17.108 17.109 17.108 9.433 0 17.108-7.674 17.108-17.108v-22.635c-.001-9.434-7.675-17.108-17.108-17.108zm10.618 39.742c0 5.855-4.763 10.618-10.618 10.618s-10.62-4.763-10.62-10.618v-22.635c0-5.855 4.764-10.618 10.62-10.618 5.855 0 10.618 4.763 10.618 10.618z"/><path d="m237.018 289.697c-9.433 0-17.108 7.674-17.108 17.108v22.635c0 9.433 7.674 17.108 17.108 17.108 9.433 0 17.108-7.674 17.108-17.108v-22.635c-.001-9.434-7.675-17.108-17.108-17.108zm10.618 39.742c0 5.855-4.763 10.618-10.618 10.618s-10.618-4.763-10.618-10.618v-22.635c0-5.855 4.763-10.618 10.618-10.618s10.618 4.763 10.618 10.618z"/><path d="m274.983 289.697c-9.435 0-17.11 7.674-17.11 17.108v22.635c0 9.433 7.675 17.108 17.11 17.108 9.432 0 17.108-7.674 17.108-17.108v-22.635c0-9.434-7.675-17.108-17.108-17.108zm10.619 39.742c0 5.855-4.763 10.618-10.618 10.618s-10.621-4.763-10.621-10.618v-22.635c0-5.855 4.766-10.618 10.621-10.618s10.618 4.763 10.618 10.618z"/><path d="m331.797 289.697c-9.432 0-17.108 7.674-17.108 17.108v22.635c0 9.433 7.675 17.108 17.108 17.108s17.108-7.674 17.108-17.108v-22.635c-.001-9.434-7.676-17.108-17.108-17.108zm10.618 39.742c0 5.855-4.763 10.618-10.618 10.618s-10.618-4.763-10.618-10.618v-22.635c0-5.855 4.763-10.618 10.618-10.618s10.618 4.763 10.618 10.618z"/><path d="m369.761 289.697c-9.432 0-17.108 7.674-17.108 17.108v22.635c0 9.433 7.675 17.108 17.108 17.108 9.432 0 17.108-7.674 17.108-17.108v-22.635c0-9.434-7.676-17.108-17.108-17.108zm10.618 39.742c0 5.855-4.763 10.618-10.618 10.618s-10.618-4.763-10.618-10.618v-22.635c0-5.855 4.763-10.618 10.618-10.618s10.618 4.763 10.618 10.618z"/><path d="m285.409 416.646-42.232 57.572c-2.128 2.907-6.671.701-5.736-2.752l10.123-37.481h-18.377c-2.258 0-3.816-2.259-3.037-4.361l18.611-50.33c.467-1.272 1.687-2.103 3.063-2.103h24.244c2.258 0 3.816 2.233 3.063 4.335l-10.876 29.954h18.559c2.647.001 4.178 3.012 2.595 5.166z"/></g></g></svg>