<svg height="512" viewBox="0 0 64 64" width="512" xmlns="http://www.w3.org/2000/svg" xmlns:xlink="http://www.w3.org/1999/xlink"><linearGradient id="linear-gradient" gradientUnits="userSpaceOnUse" x1="15.12" x2="21.37" y1="45.76" y2="45.76"><stop offset="0" stop-color="#243384"/><stop offset="1" stop-color="#0f274b"/></linearGradient><linearGradient id="linear-gradient-2" gradientUnits="userSpaceOnUse" x1="29.26" x2="33.39" y1="41.87" y2="41.87"><stop offset="0" stop-color="#e2f0f3"/><stop offset="1" stop-color="#a5b7c3"/></linearGradient><linearGradient id="linear-gradient-3" x1="20.07" x2="24.19" xlink:href="#linear-gradient-2" y1="32.67" y2="32.67"/><linearGradient id="linear-gradient-4" x1="37.04" x2="42.86" xlink:href="#linear-gradient" y1="24.04" y2="24.04"/><linearGradient id="linear-gradient-5" gradientTransform="matrix(-.707 .707 -.707 -.707 99.3 56.04)" gradientUnits="userSpaceOnUse" x1="28.85" x2="47.24" y1="48.58" y2="48.58"><stop offset="0" stop-color="#23c8de"/><stop offset="1" stop-color="#117bc9"/></linearGradient><linearGradient id="linear-gradient-6" gradientTransform="matrix(-.707 .707 -.707 -.707 44.67 33.41)" x1="6.22" x2="24.61" xlink:href="#linear-gradient-5" y1="25.96" y2="25.96"/><linearGradient id="linear-gradient-7" gradientTransform="matrix(-.707 .707 -.707 -.707 71.98 44.73)" x1="16.83" x2="35.39" xlink:href="#linear-gradient-2" y1="37.89" y2="37.89"/><linearGradient id="linear-gradient-8" gradientTransform="matrix(-.707 .707 -.707 -.707 80.82 23.39)" gradientUnits="userSpaceOnUse" x1="31.04" x2="42.99" y1="26.98" y2="26.98"><stop offset="0" stop-color="#efad7b"/><stop offset="1" stop-color="#ed7a5f"/></linearGradient><linearGradient id="linear-gradient-9" x1="38.44" x2="46.88" xlink:href="#linear-gradient-5" y1="21.34" y2="21.34"/><linearGradient id="linear-gradient-10" x1="37.25" x2="51.06" xlink:href="#linear-gradient-5" y1="19.84" y2="19.84"/><linearGradient id="linear-gradient-11" x1="36.17" x2="54.87" xlink:href="#linear-gradient-5" y1="18.48" y2="18.48"/><g id="satellite"><path d="m16.12 48.88a1 1 0 0 1 -.7-1.71l4.24-4.24a1 1 0 0 1 1.41 1.41l-4.24 4.24a1 1 0 0 1 -.71.3z" fill="url(#linear-gradient)"/><path d="m32.39 43.93a1 1 0 0 1 -.71-.3l-2.12-2.12a1 1 0 0 1 1.44-1.41l2.12 2.12a1 1 0 0 1 0 1.41 1 1 0 0 1 -.73.3z" fill="url(#linear-gradient-2)"/><path d="m23.19 34.74a1 1 0 0 1 -.7-.3l-2.12-2.12a1 1 0 0 1 0-1.41 1 1 0 0 1 1.41 0l2.12 2.09a1 1 0 0 1 0 1.41 1 1 0 0 1 -.71.33z" fill="url(#linear-gradient-3)"/><path d="m42.79 23.65a2 2 0 0 0 -2.47-2.44 1.94 1.94 0 0 0 -.79.47 2 2 0 0 0 -.53 1.96l-1.61 1.61a1 1 0 0 0 0 1.41 1 1 0 0 0 .7.3 1 1 0 0 0 .71-.3l1.61-1.61a1.81 1.81 0 0 0 .51.08 2 2 0 0 0 1.42-.59 1.93 1.93 0 0 0 .49-.83z" fill="url(#linear-gradient-4)"/><path d="m30.04 43.58h16v10h-16z" fill="url(#linear-gradient-5)" transform="matrix(-.707 -.707 .707 -.707 30.59 109.84)"/><path d="m7.42 20.96h16v10h-16z" fill="url(#linear-gradient-6)" transform="matrix(-.707 -.707 .707 -.707 7.96 55.21)"/><path d="m21.73 28.27h10a0 0 0 0 1 0 0v15a3 3 0 0 1 -3 3h-4a3 3 0 0 1 -3-3v-15a0 0 0 0 1 0 0z" fill="url(#linear-gradient-7)" transform="matrix(-.707 -.707 .707 -.707 19.27 82.53)"/><path d="m35.57 24.93a7 7 0 0 1 7 7 0 0 0 0 1 0 0h-14a0 0 0 0 1 0 0 7 7 0 0 1 7-7z" fill="url(#linear-gradient-8)" transform="matrix(-.707 -.707 .707 -.707 40.61 73.69)"/><path d="m45.67 25.56a1 1 0 0 1 -.3 0 1 1 0 0 1 -.66-1.25 3.86 3.86 0 0 0 .17-1.13 4 4 0 0 0 -4-4 3.81 3.81 0 0 0 -1.13.17 1 1 0 0 1 -.59-1.91 5.73 5.73 0 0 1 1.72-.26 6 6 0 0 1 6 6 5.84 5.84 0 0 1 -.26 1.73 1 1 0 0 1 -.95.65z" fill="url(#linear-gradient-9)"/><path d="m49.68 26.75a1 1 0 0 1 -.29-.05 1 1 0 0 1 -.67-1.24 8 8 0 0 0 .34-2.33 8.19 8.19 0 0 0 -8.19-8.19 8 8 0 0 0 -2.33.34 1 1 0 0 1 -.54-1.92 10.19 10.19 0 0 1 12.64 12.64 1 1 0 0 1 -.96.75z" fill="url(#linear-gradient-10)"/><path d="m53.33 27.83a1 1 0 0 1 -.29 0 1 1 0 0 1 -.67-1.24 12 12 0 0 0 -14.92-14.96 1 1 0 0 1 -.57-1.92 14 14 0 0 1 17.41 17.41 1 1 0 0 1 -.96.71z" fill="url(#linear-gradient-11)"/></g></svg>