<?xml version="1.0" encoding="iso-8859-1"?>
<!-- Generator: Adobe Illustrator 19.0.0, SVG Export Plug-In . SVG Version: 6.00 Build 0)  -->
<svg version="1.1" id="Layer_1" xmlns="http://www.w3.org/2000/svg" xmlns:xlink="http://www.w3.org/1999/xlink" x="0px" y="0px"
	 viewBox="0 0 512 512" style="enable-background:new 0 0 512 512;" xml:space="preserve">
<path style="fill:#676872;" d="M354.009,34.78c-79.635,0-144.176,58.428-156.003,132.857
	c66.605,17.798,116.944,78.77,116.944,152.624c0,8.5-0.68,16.896-1.988,25.133C413.418,372.233,512,296.652,512,192.771
	C512,105.45,441.337,34.78,354.009,34.78z"/>
<path style="fill:#464856;" d="M268.138,81.054c26.764-26.764,61.441-42.733,98.754-45.743
	c-92.717-7.476-170.952,65.457-170.952,157.459c0,91.879,78.111,164.946,170.952,157.46
	C234.217,339.525,172.381,176.812,268.138,81.054z"/>
<path style="fill:#EAECEF;" d="M354.009,68.431c-64.445,0-117.435,49.028-123.715,111.817c46.555,24.453,80.938,72.438,84.363,130.5
	c80.477,26.832,163.691-33.196,163.691-117.979C478.348,124.1,422.679,68.431,354.009,68.431z"/>
<path style="fill:#F5F5F5;" d="M418.911,298.843c83.382-51.129,77.79-174.13-9.749-217.531
	C329.248,134.318,334.717,253.289,418.911,298.843z"/>
<path style="fill:#D3DAE5;" d="M262.499,192.771c0-63.055,46.94-115.143,107.782-123.239
	c-75.006-9.979-140.899,48.352-140.899,123.239c0,74.956,65.963,133.21,140.899,123.241
	C309.439,307.912,262.499,255.827,262.499,192.771z"/>
<g>
	<path style="fill:#464856;" d="M380.146,258.802h-49.491c-4.277,0-7.743-3.466-7.743-7.743s3.466-7.743,7.743-7.743h49.491
		c4.277,0,7.743,3.466,7.743,7.743C387.889,255.336,384.423,258.802,380.146,258.802z"/>
	<path style="fill:#464856;" d="M380.146,282.036h-49.491c-4.277,0-7.743-3.466-7.743-7.743c0-4.277,3.466-7.743,7.743-7.743h49.491
		c4.277,0,7.743,3.466,7.743,7.743C387.889,278.57,384.423,282.036,380.146,282.036z"/>
</g>
<circle style="fill:#577DDD;" cx="419.476" cy="246.1" r="13.639"/>
<path style="fill:#87A1FF;" d="M350.537,198.441l-63.378-51.16c-3.328-2.686-3.847-7.561-1.161-10.889
	c2.687-3.328,7.562-3.848,10.889-1.161l63.379,51.16c3.328,2.686,3.847,7.561,1.161,10.889
	C358.743,200.604,353.867,201.128,350.537,198.441z"/>
<g>
	<path style="fill:#525360;" d="M337.054,95.232c-3.734,0-7.022-2.708-7.634-6.514l-2.813-17.477
		c-0.68-4.221,2.192-8.195,6.414-8.874c4.223-0.682,8.195,2.192,8.874,6.414l2.813,17.477c0.68,4.221-2.192,8.195-6.414,8.874
		C337.878,95.2,337.463,95.232,337.054,95.232z"/>
	<path style="fill:#525360;" d="M295.315,103.405l-8.622-15.463c-2.083-3.734-0.743-8.451,2.992-10.534
		c3.734-2.083,8.451-0.743,10.534,2.992l8.622,15.463c2.083,3.734,0.743,8.451-2.992,10.534
		C302.119,108.476,297.401,107.144,295.315,103.405z"/>
	<path style="fill:#525360;" d="M273.352,130.755c-3.726,0-4.075-1.034-18.452-13.468c-3.234-2.798-3.588-7.688-0.791-10.922
		c2.799-3.233,7.687-3.589,10.922-0.791l13.391,11.58c3.234,2.798,3.589,7.688,0.791,10.922
		C277.681,129.848,275.523,130.755,273.352,130.755z"/>
	<path style="fill:#525360;" d="M251.604,162.04l-16.544-6.302c-3.996-1.522-6.002-5.997-4.479-9.992
		c1.522-3.996,5.996-6.002,9.992-4.479l16.544,6.302c3.996,1.522,6.002,5.997,4.479,9.992
		C260.072,161.56,255.594,163.56,251.604,162.04z"/>
	<path style="fill:#525360;" d="M467.443,244.275l-16.542-6.302c-3.996-1.522-6.002-5.997-4.478-9.992
		c1.522-3.996,5.995-6.005,9.991-4.479l16.542,6.302c3.996,1.522,6.002,5.997,4.478,9.992
		C475.913,243.796,471.433,245.795,467.443,244.275z"/>
	<path style="fill:#525360;" d="M478.218,202.372l-17.701-0.266c-4.275-0.065-7.689-3.582-7.625-7.858
		c0.065-4.276,3.609-7.704,7.859-7.626l17.699,0.266c4.277,0.064,7.691,3.582,7.626,7.858
		C486.01,199.133,482.327,202.483,478.218,202.372z"/>
	<path style="fill:#525360;" d="M447.434,160.34c-1.404-4.04,0.736-8.452,4.775-9.854l16.725-5.805
		c4.039-1.402,8.451,0.736,9.854,4.775c1.401,4.04-0.736,8.452-4.777,9.854l-16.723,5.805
		C453.257,166.518,448.84,164.386,447.434,160.34z"/>
	<path style="fill:#525360;" d="M436.718,133.195c-7.236,0-10.55-9.144-4.892-13.749l13.729-11.173
		c3.317-2.7,8.194-2.199,10.893,1.117c2.7,3.317,2.2,8.194-1.117,10.893C440.476,132.374,440.253,133.195,436.718,133.195z"/>
	<path style="fill:#525360;" d="M404.731,107.873c-3.672-2.194-4.87-6.947-2.676-10.618l9.079-15.196
		c2.194-3.67,6.947-4.868,10.618-2.676c3.671,2.194,4.869,6.947,2.676,10.618l-9.079,15.196
		C413.157,108.868,408.403,110.066,404.731,107.873z"/>
	<path style="fill:#525360;" d="M374.103,95.786c-0.484,0-0.975-0.045-1.468-0.139c-4.199-0.806-6.951-4.864-6.146-9.064
		l3.335-17.385c0.805-4.199,4.868-6.944,9.062-6.146c4.2,0.806,6.953,4.864,6.146,9.064l-3.333,17.385
		C380.987,93.208,377.743,95.786,374.103,95.786z"/>
</g>
<path style="fill:#7E8089;" d="M354.009,324.854c-72.831,0-132.083-59.252-132.083-132.083c0-72.83,59.252-132.082,132.083-132.082
	s132.083,59.252,132.083,132.082C486.091,265.601,426.84,324.854,354.009,324.854z M354.009,76.174
	c-64.292,0-116.597,52.304-116.597,116.596s52.305,116.597,116.597,116.597s116.597-52.305,116.597-116.597
	S418.3,76.174,354.009,76.174z"/>
<path style="fill:#94969B;" d="M416.346,76.352c-5.192,2.967-10.153,6.292-14.854,9.939
	c87.237,39.056,93.022,160.449,10.181,207.787c5.025,3.166,10.286,5.991,15.753,8.437
	C510.169,246.98,504.213,123.591,416.346,76.352z"/>
<path style="fill:#FC5151;" d="M377.535,193.782c0,11.656-9.447,21.104-21.102,21.104c-11.655,0-21.102-9.447-21.102-21.104
	c0-11.652,9.446-21.102,21.102-21.102C368.087,172.68,377.535,182.129,377.535,193.782z"/>
<path style="fill:#676872;" d="M157.99,477.22c-42.2,0-81.875-16.434-111.716-46.274C16.434,401.105,0,361.429,0,319.228
	c0-87.323,70.662-157.989,157.99-157.989c87.323,0,157.991,70.664,157.991,157.989C315.981,406.548,245.32,477.22,157.99,477.22z"/>
<path style="fill:#464856;" d="M25.923,319.228c0-83.269,64.101-150.929,145.03-157.459C78.013,154.277,0,227.459,0,319.228
	c0,42.2,16.434,81.876,46.274,111.716c32.97,32.97,77.926,49.514,124.678,45.744C90.035,470.16,25.923,402.511,25.923,319.228z"/>
<circle style="fill:#EAECEF;" cx="157.986" cy="319.232" r="124.335"/>
<path style="fill:#D3DAE5;" d="M66.768,319.228c0-63.055,46.94-115.142,107.782-123.24c-75.006-9.98-140.9,48.352-140.9,123.24
	c0,74.966,65.973,133.21,140.9,123.24C113.707,434.371,66.768,382.285,66.768,319.228z"/>
<path style="fill:#F5F5F5;" d="M212.55,207.475c-80.739,52.811-75.384,172.814,9.619,218.267
	C306.434,374.859,300.98,250.73,212.55,207.475z"/>
<g>
	<path style="fill:#464856;" d="M184.128,385.262h-49.49c-4.277,0-7.743-3.466-7.743-7.743c0-4.277,3.466-7.743,7.743-7.743h49.49
		c4.277,0,7.743,3.466,7.743,7.743C191.872,381.795,188.405,385.262,184.128,385.262z"/>
	<path style="fill:#464856;" d="M184.128,408.495h-49.49c-4.277,0-7.743-3.466-7.743-7.743c0-4.277,3.466-7.743,7.743-7.743h49.49
		c4.277,0,7.743,3.466,7.743,7.743C191.872,405.029,188.405,408.495,184.128,408.495z"/>
</g>
<g>
	<circle style="fill:#577DDD;" cx="92.734" cy="372.565" r="13.85"/>
	<circle style="fill:#577DDD;" cx="223.459" cy="372.565" r="13.639"/>
</g>
<g>
	<path style="fill:#4B6FB7;" d="M419.687,246.103c0-5.001,2.7-9.36,6.715-11.734c-2.033-1.202-4.394-1.904-6.924-1.904
		c-7.533,0-13.64,6.107-13.64,13.639c0,10.522,11.469,17.113,20.564,11.734C422.388,255.465,419.687,251.105,419.687,246.103z"/>
	<path style="fill:#4B6FB7;" d="M99.658,360.582c-9.208-5.338-20.775,1.327-20.775,11.979c0,10.627,11.535,17.328,20.775,11.981
		C90.425,379.194,90.439,365.921,99.658,360.582z"/>
	<path style="fill:#4B6FB7;" d="M230.384,360.828c-9.094-5.376-20.564,1.21-20.564,11.734c0,10.522,11.468,17.114,20.564,11.735
		C221.44,379.008,221.435,366.118,230.384,360.828z"/>
</g>
<g>
	<path style="fill:#525360;" d="M145.878,195.241c-0.679-4.222-4.648-7.099-8.874-6.414c-4.222,0.68-7.094,4.653-6.414,8.874
		l2.813,17.477c0.612,3.806,3.9,6.514,7.634,6.514c4.801,0,8.408-4.292,7.654-8.974L145.878,195.241z"/>
	<path style="fill:#525360;" d="M104.201,206.859c-2.083-3.735-6.799-5.076-10.534-2.992c-3.736,2.083-5.075,6.799-2.992,10.534
		l8.622,15.463c1.417,2.542,4.053,3.973,6.77,3.973c1.275,0,2.57-0.316,3.764-0.981c3.735-2.083,5.075-6.799,2.992-10.534
		L104.201,206.859z"/>
	<path style="fill:#525360;" d="M82.402,243.614l-13.392-11.58c-3.234-2.797-8.125-2.442-10.922,0.791
		c-2.798,3.235-2.443,8.125,0.792,10.922l13.392,11.58c3.233,2.796,8.123,2.444,10.922-0.791
		C85.992,251.301,85.637,246.411,82.402,243.614z"/>
	<path style="fill:#525360;" d="M61.098,274.028l-16.544-6.303c-3.995-1.526-8.469,0.483-9.991,4.478
		c-1.523,3.997,0.482,8.47,4.478,9.993l16.544,6.303c0.907,0.346,1.839,0.509,2.754,0.509c3.12,0,6.061-1.899,7.237-4.987
		C67.101,280.024,65.095,275.551,61.098,274.028z"/>
	<path style="fill:#525360;" d="M276.939,356.261l-16.541-6.302c-3.996-1.524-8.47,0.483-9.991,4.479
		c-1.523,3.996,0.482,8.47,4.479,9.992c18.03,6.869,17.405,6.811,19.296,6.811c3.12,0,6.061-1.9,7.237-4.989
		C282.941,362.257,280.935,357.783,276.939,356.261z"/>
	<path style="fill:#525360;" d="M51.369,325.378c4.222,0,7.677-3.391,7.74-7.627c0.064-4.276-3.35-7.794-7.626-7.858l-17.701-0.265
		c-0.039-0.001-0.079-0.001-0.118-0.001c-4.222,0-7.676,3.391-7.74,7.627c-0.063,4.276,3.35,7.794,7.626,7.858
		C33.626,325.113,51.292,325.378,51.369,325.378z"/>
	<path style="fill:#525360;" d="M282.432,313.347c-0.079-0.001-17.739-0.267-17.818-0.267c-4.222,0-7.676,3.391-7.74,7.627
		c-0.064,4.276,3.35,7.793,7.625,7.858l17.701,0.266c4.111,0.108,7.792-3.237,7.858-7.626
		C290.122,316.929,286.708,313.411,282.432,313.347z"/>
	<path style="fill:#525360;" d="M54.712,346.884l-16.724,5.803c-4.04,1.402-6.178,5.814-4.776,9.854
		c1.403,4.044,5.817,6.177,9.853,4.777l16.724-5.803c4.04-1.402,6.178-5.814,4.777-9.854
		C63.163,347.62,58.751,345.481,54.712,346.884z"/>
	<path style="fill:#525360;" d="M258.73,292.004c1.732,0,0.967,0.115,19.264-6.235c4.041-1.401,6.178-5.813,4.777-9.853
		c-1.404-4.041-5.815-6.178-9.854-4.776l-16.724,5.804C247.942,279.806,250.103,292.004,258.73,292.004z"/>
	<path style="fill:#525360;" d="M260.429,235.85c-2.698-3.316-7.576-3.817-10.893-1.117l-13.729,11.173
		c-5.659,4.605-2.343,13.749,4.892,13.749c3.556,0,3.806-0.861,18.612-12.911C262.629,244.045,263.129,239.167,260.429,235.85z"/>
	<path style="fill:#525360;" d="M225.735,205.842c-3.671-2.191-8.424-0.995-10.618,2.676l-9.079,15.196
		c-2.194,3.671-0.996,8.425,2.676,10.618c3.672,2.193,8.425,0.995,10.618-2.676l9.079-15.196
		C230.604,212.789,229.406,208.036,225.735,205.842z"/>
	<path style="fill:#525360;" d="M182.869,189.511c-4.203-0.807-8.258,1.945-9.063,6.145l-3.335,17.384
		c-0.805,4.2,1.946,8.257,6.146,9.063c4.188,0.807,8.256-1.938,9.063-6.145l3.334-17.384
		C189.82,194.375,187.068,190.317,182.869,189.511z"/>
</g>
<path style="fill:#87A1FF;" d="M159.388,326.675c-2.26,0-4.501-0.984-6.03-2.879c-2.686-3.328-2.167-8.203,1.161-10.889
	l63.449-51.218c3.328-2.687,8.203-2.166,10.888,1.162c2.686,3.328,2.166,8.203-1.161,10.889
	C158.668,329.46,163.151,326.675,159.388,326.675z"/>
<path style="fill:#FC5151;" d="M180.484,321.273c0,11.656-9.447,21.104-21.102,21.104c-11.655,0-21.102-9.447-21.102-21.104
	c0-11.652,9.446-21.102,21.102-21.102C171.037,300.171,180.484,309.62,180.484,321.273z"/>
<g>
	<path style="fill:#C13333;" d="M366.287,175.129c-13.996-7.41-30.955,2.748-30.955,18.653c0,15.874,16.922,26.081,30.955,18.656
		C351.3,204.5,351.321,183.052,366.287,175.129z"/>
	<path style="fill:#C13333;" d="M169.237,302.62c-13.993-7.413-30.955,2.748-30.955,18.653c0,15.872,16.926,26.088,30.955,18.655
		C154.249,331.995,154.271,310.542,169.237,302.62z"/>
</g>
<path style="fill:#878993;" d="M157.99,451.313c-72.831,0-132.083-59.252-132.083-132.083c0-72.83,59.252-132.083,132.083-132.083
	s132.082,59.252,132.082,132.083C290.073,392.06,230.822,451.313,157.99,451.313z M157.99,202.633
	c-64.292,0-116.597,52.305-116.597,116.597S93.699,435.826,157.99,435.826s116.596-52.305,116.596-116.597
	C274.587,254.937,222.282,202.633,157.99,202.633z"/>
<path style="fill:#94969B;" d="M219.667,202.461c-5.293,2.934-10.354,6.233-15.15,9.867c88.748,38.776,94.266,162.322,9.646,209.043
	c5.1,3.173,10.441,5.993,15.991,8.427C314.359,374.655,308.659,249.657,219.667,202.461z"/>
<g>
</g>
<g>
</g>
<g>
</g>
<g>
</g>
<g>
</g>
<g>
</g>
<g>
</g>
<g>
</g>
<g>
</g>
<g>
</g>
<g>
</g>
<g>
</g>
<g>
</g>
<g>
</g>
<g>
</g>
</svg>
